# xmcd
#
# Track frame offsets:
#	150
#	13000
#	28840
#	47190
#	60295
#	75603
#	88075
#	102403
#	118530
#	135163
#
# Disc length: 2024 seconds
#
# Revision: 4
# Processed by: cddbd v1.4PL0 Copyright (c) Steve Scherf et al.
# Submitted via: audiograbber 1.81.02
#
DISCID=7607e60a,7707e60a
DTITLE=Sammy Kershaw - Haunted Heart
DYEAR=1993
DGENRE=Country
TTITLE0=A Memory That Just Won't Quit
TTITLE1=Queen Of My Double Wide Trailer
TTITLE2=Still Lovin' You
TTITLE3=She Don't Know She's Beautiful
TTITLE4=I Can't Reach Her Anymore
TTITLE5=Haunted Heart
TTITLE6=Neon Leon
TTITLE7=What Might Have Been
TTITLE8=You've Got A Lock On My Love
TTITLE9=Cry, Cry Darlin'
EXTD=PolyGram Records
EXTT0=
EXTT1=
EXTT2=
EXTT3=
EXTT4=
EXTT5=
EXTT6=
EXTT7=
EXTT8=
EXTT9=
PLAYORDER=
